<svg id="xmmt-genshin-logo" data-name="xmmt-genshin-logo" xmlns="http://www.w3.org/2000/svg" viewBox="0 0 603 603.18"><path d="M542.41,233.59c74,0,126.66,15.41,161,47.13,22.53,20.79,39.39,50.53,50.12,88.41l0,.07,0,.07C764.64,407.82,769,454.9,765.16,495.2l0,.12v.13c-3.32,38.05-12.4,68.78-30.35,102.74-16.31,30.28-37.59,59.59-63.24,87.12l0,.06,0,0c-23.7,25.68-48,45.65-72.14,59.39-25.64,14.57-51.09,22-75.64,22a125,125,0,0,1-18.5-1.38c-35.91-5.35-68.73-14.25-97.54-26.45-30.68-13-58-30.22-81.12-51.21-24.42-22.63-44.77-51.06-60.49-84.5l0-.08,0-.08c-15.61-32.81-27.25-72.2-31.15-105.43-3.31-31.32-.48-53.08,10.09-77.52,10.83-24.51,28.87-50.39,53.61-76.92l.08-.08.08-.09c26.79-29.11,58.26-54.25,91-72.71,37.43-21.1,75.3-33,112.54-35.38,14.06-.89,27.58-1.34,40.2-1.34h0m0-35c-13.84,0-28,.5-42.4,1.41-91.3,5.84-173,60.57-227.11,119.32-27.18,29.15-47.62,58.54-60.07,86.76-12.48,28.79-17,56.4-12.82,95.42,4.14,35.53,16.45,79,34.34,116.6,17.91,38.12,41.4,70.33,68.53,95.43C357.35,763,425.62,788.92,500,800a159.82,159.82,0,0,0,23.66,1.76c65.17,0,124.82-39.87,173.49-92.59,27.11-29.11,50.6-61.24,68.51-94.51C783.55,580.85,795.85,545.9,800,498.5c4.14-43.73-.34-95.52-12.82-138.9-12.45-44-32.89-79.54-60-104.6-45.57-42.12-110.74-56.41-184.73-56.41Z" transform="translate(-198.5 -198.59)"/></svg>